<svg width="40" height="40" viewBox="0 0 40 40" fill="none" xmlns="http://www.w3.org/2000/svg">
<circle cx="20" cy="20" r="20" fill="#F2FFE1"/>
<g opacity="0.9">
<path fill-rule="evenodd" clip-rule="evenodd" d="M13.3785 9.69535C14.1643 6.98398 16.6865 5 19.6767 5C23.207 5 26.0851 7.76554 26.2231 11.2286C26.6638 11.139 27.1212 11.0918 27.5903 11.0918C31.1438 11.0918 34.0246 13.7994 34.0246 17.1394C34.0246 19.6599 32.3841 21.8202 30.052 22.7287C30.6571 23.4416 31.0187 24.3451 31.0187 25.328C31.0187 27.6319 29.0317 29.4995 26.5805 29.4995C25.0411 29.4995 23.6847 28.7628 22.8886 27.6441C22.159 29.3576 20.4593 30.559 18.479 30.559C16.7588 30.559 15.2503 29.6525 14.4055 28.2912C13.559 28.8319 12.5461 29.1464 11.4577 29.1464C8.48779 29.1464 6.08019 26.8044 6.08019 23.9154C6.08019 22.5126 6.64789 21.2387 7.572 20.2993C6.01016 19.1959 5 17.4398 5 15.462C5 12.122 7.88071 9.41433 11.4342 9.41433C12.1119 9.41433 12.7651 9.5128 13.3785 9.69535Z" fill="#34D28B"/>
<path fill-rule="evenodd" clip-rule="evenodd" d="M14.141 11.092L13.0588 10.7699C12.5485 10.618 12.003 10.5355 11.4342 10.5355C8.43343 10.5355 6.12112 12.8056 6.12112 15.462C6.12112 17.043 6.92669 18.4707 8.2189 19.3837L9.29652 20.145L8.37122 21.0856C7.64191 21.8269 7.20131 22.8227 7.20131 23.9154C7.20131 26.1563 9.07757 28.0253 11.4577 28.0253C12.3276 28.0253 13.1318 27.7744 13.802 27.3463L14.7592 26.7349L15.3581 27.7C16.007 28.7455 17.1625 29.4379 18.479 29.4379C19.9942 29.4379 21.2973 28.5195 21.8571 27.2048L22.6415 25.3629L23.8021 26.9941C24.3861 27.8148 25.4008 28.3784 26.5805 28.3784C28.479 28.3784 29.8976 26.9483 29.8976 25.328C29.8976 24.6275 29.6414 23.9775 29.1972 23.4541L28.1795 22.2549L29.6451 21.684C31.5933 20.9251 32.9034 19.1495 32.9034 17.1394C32.9034 14.483 30.5911 12.2129 27.5903 12.2129C27.1965 12.2129 26.8139 12.2525 26.4466 12.3272L25.1554 12.5898L25.1029 11.2732C24.9891 8.41865 22.6123 6.12112 19.6767 6.12112C17.1926 6.12112 15.1042 7.76853 14.4553 10.0074L14.141 11.092ZM26.0809 10.1139C25.4441 7.1906 22.8187 5 19.6767 5C16.719 5 14.219 6.94118 13.4047 9.6074C13.3958 9.63663 13.3871 9.66595 13.3785 9.69535C13.3479 9.68623 13.3172 9.67732 13.2863 9.66863C12.6998 9.50321 12.0781 9.41433 11.4342 9.41433C7.88071 9.41433 5 12.122 5 15.462C5 17.0493 5.65063 18.4938 6.7149 19.5727C6.97674 19.8381 7.26362 20.0815 7.572 20.2993C7.30881 20.5669 7.07453 20.8615 6.87404 21.1786C6.37057 21.9748 6.08019 22.9121 6.08019 23.9154C6.08019 26.8044 8.48779 29.1464 11.4577 29.1464C12.4954 29.1464 13.4645 28.8605 14.2862 28.3652C14.3263 28.341 14.3661 28.3163 14.4055 28.2912C14.4274 28.3265 14.4498 28.3614 14.4725 28.3961C15.3287 29.6989 16.8034 30.559 18.479 30.559C20.0279 30.559 21.4051 29.824 22.2808 28.6839C22.5247 28.3663 22.7297 28.0173 22.8886 27.6441C23.12 27.9693 23.3988 28.2622 23.7156 28.5141C24.4887 29.1289 25.4886 29.4995 26.5805 29.4995C29.0317 29.4995 31.0187 27.6319 31.0187 25.328C31.0187 24.7466 30.8922 24.193 30.6636 23.6902C30.5057 23.3429 30.2992 23.0199 30.052 22.7287C30.4129 22.5881 30.7572 22.4175 31.0815 22.2203C32.8525 21.143 34.0246 19.2698 34.0246 17.1394C34.0246 13.7994 31.1438 11.0918 27.5903 11.0918C27.5063 11.0918 27.4226 11.0933 27.3394 11.0963C26.9579 11.1101 26.5848 11.155 26.2231 11.2286C26.208 10.8477 26.1596 10.4752 26.0809 10.1139Z" fill="#03A35B"/>
<path d="M19.865 25.6785C20.5916 24.848 21.5467 24.4535 22.1903 23.2701C22.6553 22.4505 21.5882 23.976 19.865 24.7234L19.5743 23.5608V21.9414H17.2075C16.9791 22.9795 17.0414 25.3463 17.0414 26.4259C17.0414 27.665 16.1072 35.2495 16.0656 35.4779C16.0324 35.6606 15.4013 36.4398 15.0898 36.8066H21.3183L20.3633 35.2495C19.9646 34.2364 19.6989 28.3359 19.865 25.6785Z" fill="#CF883C"/>
<path fill-rule="evenodd" clip-rule="evenodd" d="M17.0244 21.9006C17.0432 21.8149 17.1191 21.7539 17.2069 21.7539H19.5737C19.6769 21.7539 19.7605 21.8376 19.7605 21.9408V23.5372L19.991 24.4592C20.7337 24.1005 21.3388 23.6066 21.7243 23.2681C21.7958 23.2053 21.8586 23.1489 21.914 23.0991C21.9404 23.0754 21.9651 23.0533 21.9883 23.0326C22.0539 22.9741 22.1178 22.9179 22.164 22.8883C22.1762 22.8806 22.197 22.868 22.2226 22.8591L22.2227 22.8591C22.2368 22.8541 22.3156 22.8267 22.3956 22.8775C22.4868 22.9354 22.4864 23.0314 22.4854 23.0539C22.4839 23.0852 22.4757 23.1118 22.4709 23.126C22.4521 23.1812 22.4081 23.2631 22.353 23.3603C22.0158 23.9797 21.5973 24.3911 21.1795 24.7481C21.07 24.8417 20.9621 24.9303 20.8563 25.0173C20.5687 25.2538 20.2963 25.4778 20.0469 25.7537C19.9692 27.0765 19.9945 29.1706 20.0883 31.0707C20.136 32.0356 20.2012 32.9474 20.279 33.6799C20.318 34.0463 20.3599 34.366 20.4041 34.6242C20.447 34.8746 20.4902 35.0564 20.5309 35.1659L21.4769 36.7083C21.5123 36.7659 21.5137 36.8382 21.4807 36.8972C21.4476 36.9563 21.3853 36.9928 21.3176 36.9928H15.0892C15.0164 36.9928 14.9502 36.9505 14.9196 36.8845C14.889 36.8184 14.8996 36.7405 14.9468 36.685C15.1011 36.5033 15.3345 36.2194 15.5328 35.9593C15.6322 35.829 15.7209 35.7069 15.7862 35.6077C15.8189 35.5579 15.8441 35.5164 15.8614 35.4839C15.8773 35.4541 15.8813 35.4414 15.8815 35.4415L15.8817 35.4407C15.882 35.4388 15.8824 35.4363 15.8828 35.4332C15.8838 35.4269 15.885 35.4187 15.8864 35.4085C15.8893 35.3881 15.893 35.3608 15.8976 35.3269C15.9066 35.259 15.9187 35.1656 15.9335 35.0499C15.963 34.8186 16.0028 34.4991 16.0495 34.118C16.1429 33.3559 16.2635 32.3482 16.3828 31.3089C16.6224 29.2223 16.8539 27.031 16.8539 26.4252C16.8539 26.2576 16.8524 26.0571 16.8507 25.8344C16.847 25.347 16.8424 24.7533 16.8514 24.1646C16.8643 23.3104 16.9055 22.4408 17.0244 21.9006ZM22.3656 23.203C22.3666 23.2024 22.3665 23.2025 22.3654 23.2032C22.3654 23.2031 22.3655 23.2031 22.3656 23.203ZM21.4448 23.9841C21.0411 24.2957 20.5281 24.6386 19.9387 24.8942C19.8883 24.9161 19.8309 24.9147 19.7817 24.8904C19.7324 24.8661 19.6964 24.8214 19.6831 24.7681L19.3924 23.6055C19.3887 23.5907 19.3868 23.5754 19.3868 23.5602V22.1276H17.3606C17.2723 22.6333 17.2368 23.3912 17.225 24.1703C17.2162 24.7549 17.2206 25.3393 17.2244 25.8248C17.2261 26.0494 17.2276 26.2528 17.2276 26.4252C17.2276 27.0585 16.992 29.2791 16.7541 31.3516C16.5159 33.4266 16.271 35.3887 16.2488 35.5107C16.2391 35.5639 16.2135 35.6178 16.1912 35.6596C16.1664 35.7061 16.1344 35.7583 16.0984 35.813C16.0263 35.9228 15.9316 36.0527 15.83 36.1859C15.7198 36.3304 15.5995 36.4816 15.4874 36.6191H20.9838L20.2033 35.3466C20.1976 35.3372 20.1927 35.3274 20.1887 35.3173C20.1314 35.1716 20.0811 34.9524 20.0358 34.6872C19.9898 34.4184 19.9468 34.0902 19.9074 33.7194C19.8286 32.9776 19.7629 32.0583 19.7151 31.0892C19.6194 29.1525 19.5942 27.0051 19.6778 25.6662C19.6804 25.625 19.6966 25.5858 19.7237 25.5548C20.0064 25.2317 20.3268 24.9684 20.637 24.7135C20.7385 24.63 20.839 24.5474 20.9367 24.464C21.1116 24.3146 21.2824 24.1588 21.4448 23.9841Z" fill="#CF883C"/>
<path d="M20.6986 20.0729C20.6986 21.4718 19.5646 22.6058 18.1657 22.6058C16.7668 22.6058 15.6328 21.4718 15.6328 20.0729C15.6328 18.6741 16.7668 17.54 18.1657 17.54C19.5646 17.54 20.6986 18.6741 20.6986 20.0729Z" fill="#34D28B"/>
<path d="M27.9604 22.0036C27.9604 23.7121 26.5754 25.0971 24.8669 25.0971C23.1584 25.0971 21.7734 23.7121 21.7734 22.0036C21.7734 20.2951 23.1584 18.9102 24.8669 18.9102C26.5754 18.9102 27.9604 20.2951 27.9604 22.0036Z" fill="#F99852"/>
<path d="M16.9573 12.7853C16.9573 14.425 15.6281 15.7542 13.9884 15.7542C12.3487 15.7542 11.0195 14.425 11.0195 12.7853C11.0195 11.1456 12.3487 9.81641 13.9884 9.81641C15.6281 9.81641 16.9573 11.1456 16.9573 12.7853Z" fill="#F99852"/>
<path d="M13.7197 20.8413C13.7197 22.3205 12.5207 23.5195 11.0415 23.5195C9.56237 23.5195 8.36328 22.3205 8.36328 20.8413C8.36328 19.3622 9.56237 18.1631 11.0415 18.1631C12.5207 18.1631 13.7197 19.3622 13.7197 20.8413Z" fill="#F99852"/>
<path d="M21.929 13.709C21.9354 14.2115 21.5332 14.624 21.0307 14.6304C20.5282 14.6368 20.1156 14.2346 20.1092 13.7321C20.1028 13.2296 20.505 12.8171 21.0075 12.8107C21.51 12.8043 21.9226 13.2065 21.929 13.709Z" fill="#03A35B"/>
<path d="M18.093 13.5928C18.0994 14.0953 17.6973 14.5078 17.1948 14.5142C16.6923 14.5206 16.2797 14.1184 16.2733 13.6159C16.2669 13.1134 16.6691 12.7009 17.1716 12.6945C17.6741 12.6881 18.0867 13.0902 18.093 13.5928Z" fill="#03A35B"/>
<path fill-rule="evenodd" clip-rule="evenodd" d="M20.1687 15.7496C20.385 15.8157 20.5066 16.0447 20.4405 16.2609C20.1408 17.2401 19.5549 17.9043 18.7894 17.8707C18.0501 17.8382 17.4957 17.1602 17.237 16.2884C17.1727 16.0716 17.2963 15.8437 17.5131 15.7794C17.7299 15.715 17.9578 15.8386 18.0222 16.0554C18.246 16.8096 18.6175 17.0434 18.8254 17.0525C19.007 17.0605 19.3896 16.8963 19.6574 16.0213C19.7235 15.805 19.9525 15.6834 20.1687 15.7496Z" fill="#03A35B"/>
<path fill-rule="evenodd" clip-rule="evenodd" d="M17.2221 16.1233C17.2238 15.8971 17.4085 15.7152 17.6346 15.7169L20.0231 15.735C20.2492 15.7367 20.4311 15.9214 20.4294 16.1476C20.4277 16.3737 20.243 16.5556 20.0168 16.5539L17.6284 16.5358C17.4023 16.5341 17.2203 16.3494 17.2221 16.1233Z" fill="#03A35B"/>
</g>
</svg>
