<svg width="40" height="40" viewBox="0 0 40 40" fill="none" xmlns="http://www.w3.org/2000/svg">
<circle cx="20" cy="20" r="20" fill="#F2FFE1"/>
<path opacity="0.9" d="M30.4696 24.5021C34.034 19.2234 31.4392 9.42643 24.6769 9.88644C19.8949 10.3846 16.4681 14.7524 12.3859 14.7261C7.80273 14.6966 2.86218 23.7339 10.637 29.2692C18.4119 34.8045 26.9051 29.7808 30.4696 24.5021Z" fill="#D6A168"/>
<path opacity="0.9" fill-rule="evenodd" clip-rule="evenodd" d="M18.496 12.8913C16.5565 14.0274 14.5697 15.1902 12.3826 15.1761C11.3849 15.1697 10.3229 15.6595 9.39397 16.5351C8.46854 17.4074 7.70618 18.6359 7.30964 20.0338C6.52403 22.8031 7.16919 26.2484 10.8976 28.9028C14.6516 31.5755 18.5633 31.6984 21.9848 30.5157C25.4239 29.327 28.3627 26.8177 30.0962 24.2504C31.7851 21.7492 32.0313 18.1326 31.0198 15.1885C30.0116 12.2541 27.8171 10.1278 24.715 10.3349C22.4538 10.5727 20.4973 11.7188 18.53 12.8713L18.496 12.8913ZM18.1452 12.0538C20.0655 10.9285 22.17 9.69524 24.6298 9.439L24.6379 9.43816L24.6459 9.43762C28.3019 9.18892 30.7831 11.73 31.8709 14.8961C32.9562 18.0552 32.7175 21.9764 30.842 24.754C29.0112 27.4653 25.9211 30.1073 22.2788 31.3662C18.6188 32.6313 14.3965 32.4985 10.3757 29.6358C6.32918 26.755 5.55718 22.9139 6.44392 19.7882C6.88356 18.2384 7.72975 16.8672 8.77673 15.8803C9.82021 14.8967 11.0945 14.2679 12.3884 14.2763C14.2835 14.2885 16.0512 13.2805 18.0411 12.1148C18.0758 12.0945 18.1104 12.0742 18.1452 12.0538Z" fill="#95644A"/>
<path opacity="0.9" fill-rule="evenodd" clip-rule="evenodd" d="M17.3513 14.5175C17.5117 14.6077 17.5686 14.8109 17.4784 14.9714C17.1344 15.5829 16.5829 15.9954 16.0104 16.2533C15.4386 16.511 14.8251 16.6244 14.3216 16.6244C14.1375 16.6244 13.9883 16.4752 13.9883 16.2911C13.9883 16.107 14.1375 15.9578 14.3216 15.9578C14.7346 15.9578 15.2543 15.8629 15.7365 15.6456C16.218 15.4287 16.6414 15.0996 16.8974 14.6446C16.9876 14.4841 17.1908 14.4272 17.3513 14.5175Z" fill="#95644A"/>
<path opacity="0.9" d="M22 19.5C22 19.7761 21.7761 20 21.5 20C21.2239 20 21 19.7761 21 19.5C21 19.2239 21.2239 19 21.5 19C21.7761 19 22 19.2239 22 19.5Z" fill="#523D33"/>
<path opacity="0.9" fill-rule="evenodd" clip-rule="evenodd" d="M21.5 19.963C21.7557 19.963 21.963 19.7557 21.963 19.5C21.963 19.2443 21.7557 19.037 21.5 19.037C21.2443 19.037 21.037 19.2443 21.037 19.5C21.037 19.7557 21.2443 19.963 21.5 19.963ZM21.5 20C21.7761 20 22 19.7761 22 19.5C22 19.2239 21.7761 19 21.5 19C21.2239 19 21 19.2239 21 19.5C21 19.7761 21.2239 20 21.5 20Z" fill="#523D33"/>
<path opacity="0.9" d="M19 19.5C19 19.7761 18.7761 20 18.5 20C18.2239 20 18 19.7761 18 19.5C18 19.2239 18.2239 19 18.5 19C18.7761 19 19 19.2239 19 19.5Z" fill="#523D33"/>
<path opacity="0.9" fill-rule="evenodd" clip-rule="evenodd" d="M18.5 19.963C18.7557 19.963 18.963 19.7557 18.963 19.5C18.963 19.2443 18.7557 19.037 18.5 19.037C18.2443 19.037 18.037 19.2443 18.037 19.5C18.037 19.7557 18.2443 19.963 18.5 19.963ZM18.5 20C18.7761 20 19 19.7761 19 19.5C19 19.2239 18.7761 19 18.5 19C18.2239 19 18 19.2239 18 19.5C18 19.7761 18.2239 20 18.5 20Z" fill="#523D33"/>
<path opacity="0.9" fill-rule="evenodd" clip-rule="evenodd" d="M19.1127 21.031C19.2179 20.9645 19.3501 21.0086 19.4079 21.1296C19.6272 21.5883 20.3041 21.6615 20.598 21.118C20.6614 21.0008 20.7954 20.9648 20.8974 21.0377C20.9993 21.1106 21.0306 21.2648 20.9672 21.382C20.4964 22.2528 19.405 22.1615 19.0269 21.3705C18.9691 21.2495 19.0075 21.0975 19.1127 21.031Z" fill="#523D33"/>
<path opacity="0.9" d="M25.7301 11.2227C25.8681 11.7479 25.41 12.3235 24.7069 12.5084C24.0037 12.6933 23.3217 12.4175 23.1836 11.8923C23.0455 11.3671 23.5036 10.7915 24.2068 10.6066C24.91 10.4217 25.592 10.6976 25.7301 11.2227Z" fill="#FBC183"/>
</svg>
