<svg width="40" height="40" viewBox="0 0 40 40" fill="none" xmlns="http://www.w3.org/2000/svg">
<circle cx="20" cy="20" r="20" fill="#F2FFE1"/>
<g opacity="0.9">
<path d="M20.0471 35.0247C18.4668 32.3804 19.0093 27.4924 19.4128 25.233C19.5937 23.8477 19.3613 20.5574 18.6283 22.5714C17.8954 24.5855 17.7825 30.2049 17.3107 35.3364C17.049 38.1837 21.4543 37.3792 20.0471 35.0247Z" fill="#5CE66E"/>
<path fill-rule="evenodd" clip-rule="evenodd" d="M18.9318 23.3748C18.843 23.7577 18.7625 24.2232 18.6891 24.7635C18.5701 25.6389 18.4734 26.6788 18.3842 27.825C18.3177 28.6796 18.2553 29.5957 18.1908 30.5425C18.0834 32.1188 17.9702 33.78 17.8227 35.3837C17.7702 35.9552 17.9509 36.2594 18.1504 36.4218C18.37 36.6004 18.697 36.6759 19.0296 36.6239C19.3659 36.5713 19.6193 36.4037 19.733 36.2086C19.8287 36.0445 19.886 35.7561 19.6066 35.2885C18.7435 33.8444 18.4844 31.8459 18.4728 29.988C18.4611 28.1183 18.7006 26.3047 18.9053 25.1552C18.9645 24.6912 18.9745 23.9885 18.9318 23.3748ZM19.8701 22.5412C20.0062 23.3379 20.0194 24.5584 19.9226 25.2997C19.9216 25.3077 19.9204 25.3156 19.9189 25.3235C19.7206 26.434 19.489 28.1879 19.5002 29.9815C19.5115 31.7935 19.7713 33.5612 20.4885 34.7614C20.9127 35.471 20.947 36.1662 20.6207 36.726C20.3123 37.255 19.6864 37.1318 19.13 37.2187C18.5699 37.3063 17.652 37.2868 17.1632 36.8891C16.6543 36.4751 16.7213 36.1417 16.7996 35.2896C16.9463 33.6938 17.0575 32.0606 17.164 30.4959C17.2287 29.5459 17.2917 28.6211 17.3598 27.7453C17.4495 26.5934 17.5479 25.5301 17.671 24.6251C17.7929 23.7281 17.943 22.9538 18.146 22.396C18.2425 22.1311 18.3474 21.9031 18.4715 21.7399C18.5336 21.6584 18.6256 21.559 18.7563 21.4927C18.9048 21.4173 19.0887 21.3938 19.2703 21.4636C19.43 21.5249 19.5312 21.637 19.5893 21.718C19.6501 21.8026 19.6935 21.8948 19.7255 21.9772C19.7898 22.1425 19.8358 22.3404 19.8701 22.5412Z" fill="#5CE66E"/>
<path d="M8.49387 14.2142C6.96403 14.2819 5.60833 13.6885 5.36282 13.361C3.76601 24.2394 13.7452 26.4053 18.4998 25.6233C19.7217 14.5297 10.4062 14.1296 8.49387 14.2142Z" fill="#8BFD89"/>
<path fill-rule="evenodd" clip-rule="evenodd" d="M5.23493 12.8624C5.43599 12.8113 5.64804 12.8862 5.77246 13.0522C5.77075 13.0499 5.7716 13.0506 5.77566 13.0541C5.79061 13.0668 5.84921 13.1166 5.98401 13.1897C6.1372 13.2728 6.34748 13.3638 6.60296 13.4462C7.11462 13.6111 7.77471 13.7311 8.46976 13.7003C9.46619 13.6563 12.3952 13.7334 14.9387 15.2879C16.2215 16.072 17.4069 17.2328 18.1864 18.934C18.9646 20.6323 19.3223 22.8345 19.009 25.6789C18.9838 25.908 18.8091 26.0922 18.5818 26.1296C16.1057 26.5368 12.2908 26.1816 9.27612 24.3C7.75914 23.3531 6.43768 22.0146 5.60444 20.1889C4.77123 18.3633 4.44215 16.0855 4.85313 13.2857C4.88325 13.0804 5.03387 12.9135 5.23493 12.8624ZM5.77251 14.229C5.55218 16.4945 5.87739 18.3124 6.53915 19.7623C7.2765 21.3779 8.44761 22.5717 9.82015 23.4284C12.4322 25.0587 15.7475 25.4492 18.0271 25.1711C18.2502 22.6669 17.9031 20.7823 17.2523 19.362C16.569 17.8707 15.5352 16.8567 14.4028 16.1646C12.1159 14.7669 9.43103 14.6863 8.51516 14.7268C7.68036 14.7637 6.89768 14.6207 6.28766 14.4241C6.10161 14.3641 5.92859 14.2981 5.77251 14.229Z" fill="#5CE66E"/>
<path d="M31.499 12.2897C33.2466 12.4676 34.8381 11.877 35.1408 11.5181C36.2553 24.0813 24.6845 25.9066 19.2908 24.6988C18.6198 11.9138 29.3145 12.0673 31.499 12.2897Z" fill="#8BFD89"/>
<path fill-rule="evenodd" clip-rule="evenodd" d="M34.7474 11.186C34.8812 11.0283 35.0965 10.9662 35.2938 11.0285C35.4916 11.091 35.6325 11.2664 35.6508 11.473C35.9366 14.6946 35.4117 17.2665 34.3455 19.2875C33.2794 21.3086 31.6897 22.7448 29.9013 23.7235C26.3442 25.6701 21.9713 25.8262 19.1768 25.2005C18.9519 25.1501 18.7881 24.9562 18.776 24.7261C18.6045 21.4585 19.1573 18.9742 20.1523 17.0949C21.1487 15.2128 22.5708 13.9714 24.08 13.1638C27.0754 11.5609 30.4169 11.6636 31.5493 11.7789C32.3535 11.8608 33.1264 11.7656 33.7306 11.6084C34.0323 11.5298 34.2836 11.438 34.4694 11.3506C34.5623 11.3068 34.6335 11.2667 34.6841 11.2333C34.7307 11.2025 34.7475 11.1855 34.7477 11.1856C34.7477 11.1856 34.7476 11.1858 34.7474 11.186ZM34.6822 12.3777C34.8039 15.0478 34.3085 17.1557 33.4368 18.8081C32.4783 20.625 31.0471 21.9252 29.408 22.8222C26.2678 24.5407 22.3922 24.7614 19.7848 24.2763C19.6842 21.3527 20.2085 19.1846 21.0603 17.5756C21.9487 15.8976 23.211 14.7941 24.5647 14.0697C27.295 12.6087 30.3931 12.694 31.4452 12.8011C32.3886 12.8971 33.2852 12.786 33.9894 12.6027C34.2437 12.5365 34.4771 12.4598 34.6822 12.3777Z" fill="#5CE66E"/>
<path fill-rule="evenodd" clip-rule="evenodd" d="M10.6953 18.1535C10.7807 17.883 11.0693 17.7329 11.3398 17.8183C12.3404 18.1341 13.8316 18.9772 15.2611 20.2412C16.6965 21.5104 18.1085 23.2379 18.9069 25.3502C19.0072 25.6156 18.8734 25.9121 18.608 26.0124C18.3426 26.1127 18.0461 25.9789 17.9458 25.7135C17.2218 23.7979 15.9278 22.2022 14.5805 21.0109C13.2273 19.8144 11.8591 19.0596 11.0306 18.7981C10.76 18.7127 10.6099 18.4241 10.6953 18.1535Z" fill="#5CE66E"/>
<path fill-rule="evenodd" clip-rule="evenodd" d="M25.1016 19.2582C25.0331 18.9828 24.7543 18.8152 24.479 18.8838C23.8045 19.0518 22.8166 19.566 21.8594 20.369C20.8936 21.1793 19.9207 22.3154 19.3123 23.7621C19.2023 24.0236 19.3251 24.3248 19.5866 24.4348C19.8482 24.5448 20.1494 24.4219 20.2594 24.1604C20.7914 22.8954 21.6504 21.8856 22.5198 21.1561C23.3979 20.4194 24.2484 20 24.7272 19.8808C25.0026 19.8122 25.1702 19.5335 25.1016 19.2582Z" fill="#5CE66E"/>
<path d="M30.2617 16.8334C29.9801 17.1791 29.4715 17.2311 29.1257 16.9495C28.78 16.6679 28.728 16.1593 29.0096 15.8135C29.2912 15.4678 29.7998 15.4158 30.1456 15.6974C30.4913 15.979 30.5433 16.4876 30.2617 16.8334Z" fill="#41A54F"/>
<path d="M27.4414 14.5736C27.1597 14.9194 26.6512 14.9714 26.3054 14.6897C25.9597 14.4081 25.9077 13.8995 26.1893 13.5538C26.4709 13.208 26.9795 13.156 27.3253 13.4377C27.671 13.7193 27.723 14.2279 27.4414 14.5736Z" fill="#41A54F"/>
<path fill-rule="evenodd" clip-rule="evenodd" d="M27.4669 17.3947C27.5777 17.5622 27.5317 17.7878 27.3642 17.8986C26.5951 18.4071 25.8087 18.5408 25.3026 18.0773C24.8147 17.6304 24.8353 16.8418 25.1647 16.0921C25.2454 15.9082 25.46 15.8246 25.6439 15.9054C25.8277 15.9861 25.9113 16.2007 25.8306 16.3845C25.5409 17.0441 25.6608 17.4191 25.7939 17.5409C25.9088 17.6462 26.2648 17.7536 26.963 17.292C27.1305 17.1812 27.3561 17.2272 27.4669 17.3947Z" fill="#41A54F"/>
<path fill-rule="evenodd" clip-rule="evenodd" d="M25.2701 15.921C25.4001 15.7681 25.6294 15.7495 25.7823 15.8795L27.3971 17.2521C27.55 17.3821 27.5686 17.6114 27.4387 17.7643C27.3087 17.9172 27.0794 17.9358 26.9265 17.8058L25.3116 16.4332C25.1587 16.3032 25.1401 16.0739 25.2701 15.921Z" fill="#41A54F"/>
<path fill-rule="evenodd" clip-rule="evenodd" d="M28.4052 13.0567C29.9702 12.4314 31.2766 12.8131 31.9211 13.0131C32.192 13.0972 32.3435 13.385 32.2595 13.656C32.1754 13.927 31.8875 14.0785 31.6166 13.9944C31.0214 13.8097 30.0078 13.5228 28.7865 14.0108C28.523 14.1161 28.2241 13.9879 28.1188 13.7244C28.0135 13.4609 28.1417 13.162 28.4052 13.0567Z" fill="#F4FFF0"/>
<path fill-rule="evenodd" clip-rule="evenodd" d="M10.2233 15.0811C11.9043 14.9615 13.0326 15.7227 13.5857 16.1093C13.8183 16.2718 13.875 16.5921 13.7124 16.8247C13.5499 17.0572 13.2296 17.114 12.9971 16.9514C12.4863 16.5944 11.6081 16.0127 10.2962 16.1059C10.0132 16.1261 9.76741 15.9129 9.74729 15.6299C9.72717 15.3469 9.94029 15.1012 10.2233 15.0811Z" fill="#F4FFF0"/>
</g>
</svg>
