<svg width="40" height="40" viewBox="0 0 40 40" fill="none" xmlns="http://www.w3.org/2000/svg">
<circle cx="20" cy="20" r="20" fill="#F2FFE1"/>
<path fill-rule="evenodd" clip-rule="evenodd" d="M14.2643 9.63133C15.0393 6.95692 17.5272 5 20.4766 5C23.9587 5 26.7976 7.72783 26.9338 11.1437C27.3684 11.0553 27.8196 11.0087 28.2823 11.0087C31.7874 11.0087 34.6288 13.6794 34.6288 16.9739C34.6288 19.46 33.0107 21.5909 30.7104 22.4869C31.3073 23.1902 31.664 24.0813 31.664 25.0508C31.664 27.3233 29.704 29.1655 27.2863 29.1655C25.7678 29.1655 24.4299 28.4388 23.6447 27.3353C22.925 29.0255 21.2485 30.2105 19.2952 30.2105C17.5985 30.2105 16.1106 29.3163 15.2773 27.9736C14.4423 28.507 13.4432 28.8172 12.3697 28.8172C9.44024 28.8172 7.06546 26.5071 7.06546 23.6575C7.06546 22.2738 7.62542 21.0173 8.53694 20.0907C6.99639 19.0024 6 17.2702 6 15.3193C6 12.0248 8.84143 9.35415 12.3465 9.35415C13.0149 9.35415 13.6592 9.45127 14.2643 9.63133Z" fill="#34D28B"/>
<path fill-rule="evenodd" clip-rule="evenodd" d="M15.0164 11.0089L13.9489 10.6912C13.4456 10.5414 12.9075 10.46 12.3465 10.46C9.38661 10.46 7.10583 12.6991 7.10583 15.3193C7.10583 16.8788 7.90042 18.2871 9.17501 19.1876L10.2379 19.9385L9.32526 20.8662C8.60589 21.5975 8.1713 22.5797 8.1713 23.6575C8.1713 25.8678 10.022 27.7114 12.3697 27.7114C13.2277 27.7114 14.0209 27.4639 14.682 27.0417L15.6261 26.4386L16.2169 27.3905C16.8569 28.4218 17.9967 29.1047 19.2952 29.1047C20.7898 29.1047 22.0751 28.1988 22.6273 26.9021L23.4009 25.0852L24.5458 26.6942C25.1217 27.5037 26.1226 28.0597 27.2863 28.0597C29.1588 28.0597 30.5582 26.649 30.5582 25.0508C30.5582 24.3599 30.3055 23.7188 29.8673 23.2025L28.8635 22.0196L30.3091 21.4565C32.2307 20.708 33.523 18.9566 33.523 16.9739C33.523 14.3537 31.2422 12.1146 28.2823 12.1146C27.8939 12.1146 27.5165 12.1536 27.1542 12.2273L25.8806 12.4863L25.8288 11.1877C25.7166 8.37204 23.3722 6.10583 20.4766 6.10583C18.0263 6.10583 15.9664 7.73078 15.3264 9.93913L15.0164 11.0089ZM26.7935 10.0442C26.1653 7.16073 23.5757 5 20.4766 5C17.5592 5 15.0933 6.91471 14.2901 9.54458C14.2813 9.57341 14.2727 9.60233 14.2643 9.63133C14.2341 9.62234 14.2038 9.61355 14.1733 9.60497C13.5948 9.44181 12.9816 9.35415 12.3465 9.35415C8.84143 9.35415 6 12.0248 6 15.3193C6 16.885 6.64176 18.3098 7.69152 19.374C7.94979 19.6358 8.23276 19.8758 8.53694 20.0907C8.27733 20.3546 8.04625 20.6453 7.84849 20.958C7.35188 21.7433 7.06546 22.6679 7.06546 23.6575C7.06546 26.5071 9.44024 28.8172 12.3697 28.8172C13.3932 28.8172 14.3491 28.5352 15.1596 28.0466C15.1992 28.0228 15.2384 27.9984 15.2773 27.9736C15.2989 28.0084 15.3209 28.0429 15.3434 28.0771C16.1879 29.3621 17.6424 30.2105 19.2952 30.2105C20.823 30.2105 22.1815 29.4856 23.0452 28.3609C23.2858 28.0477 23.4879 27.7035 23.6447 27.3353C23.873 27.6561 24.1479 27.945 24.4604 28.1935C25.223 28.7999 26.2092 29.1655 27.2863 29.1655C29.704 29.1655 31.664 27.3233 31.664 25.0508C31.664 24.4774 31.5392 23.9313 31.3137 23.4354C31.158 23.0928 30.9542 22.7742 30.7104 22.4869C31.0664 22.3483 31.406 22.18 31.7259 21.9855C33.4728 20.9229 34.6288 19.0753 34.6288 16.9739C34.6288 13.6794 31.7874 11.0087 28.2823 11.0087C28.1994 11.0087 28.1169 11.0102 28.0348 11.0132C27.6585 11.0267 27.2905 11.0711 26.9338 11.1437C26.9188 10.7679 26.8711 10.4005 26.7935 10.0442Z" fill="#03A35B"/>
<path d="M20.6632 25.3961C21.3799 24.5769 22.3219 24.1878 22.9567 23.0206C23.4155 22.2121 22.3629 23.7168 20.6632 24.4541L20.3765 23.3073V21.71H18.0419C17.8167 22.7339 17.8781 25.0684 17.8781 26.1333C17.8781 27.3555 16.9566 34.8366 16.9156 35.0619C16.8828 35.2421 16.2603 36.0107 15.9531 36.3725H22.0966L21.1546 34.8366C20.7615 33.8373 20.4993 28.0173 20.6632 25.3961Z" fill="#CF883C"/>
<path fill-rule="evenodd" clip-rule="evenodd" d="M17.8626 21.6711C17.8812 21.5866 17.9561 21.5264 18.0426 21.5264H20.3772C20.479 21.5264 20.5615 21.6089 20.5615 21.7107V23.2853L20.7889 24.1948C21.5214 23.8409 22.1182 23.3538 22.4985 23.0199C22.569 22.958 22.6309 22.9023 22.6856 22.8532C22.7116 22.8299 22.736 22.808 22.7589 22.7876C22.8236 22.7299 22.8867 22.6745 22.9322 22.6453C22.9442 22.6377 22.9647 22.6253 22.9899 22.6165L22.99 22.6165C23.004 22.6116 23.0817 22.5845 23.1606 22.6346C23.2506 22.6918 23.2502 22.7865 23.2492 22.8086C23.2477 22.8396 23.2396 22.8657 23.2349 22.8797C23.2164 22.9342 23.1729 23.0149 23.1186 23.1108C22.786 23.7218 22.3732 24.1276 21.9611 24.4797C21.8531 24.572 21.7467 24.6595 21.6423 24.7453C21.3586 24.9785 21.0899 25.1995 20.844 25.4716C20.7673 26.7764 20.7923 28.842 20.8848 30.7162C20.9318 31.6678 20.9961 32.5672 21.0729 33.2898C21.1113 33.6511 21.1527 33.9665 21.1963 34.2212C21.2385 34.4681 21.2812 34.6475 21.3214 34.7555L22.2545 36.2769C22.2894 36.3337 22.2908 36.405 22.2582 36.4632C22.2256 36.5215 22.1641 36.5575 22.0974 36.5575H15.9538C15.882 36.5575 15.8167 36.5158 15.7866 36.4506C15.7564 36.3854 15.7669 36.3087 15.8133 36.2539C15.9656 36.0746 16.1958 35.7947 16.3914 35.5381C16.4894 35.4095 16.577 35.2891 16.6413 35.1913C16.6736 35.1422 16.6984 35.1012 16.7155 35.0692C16.7312 35.0397 16.7351 35.0273 16.7354 35.0273L16.7355 35.0266C16.7358 35.0247 16.7362 35.0222 16.7367 35.0191C16.7376 35.0129 16.7388 35.0049 16.7402 34.9948C16.743 34.9747 16.7467 34.9478 16.7512 34.9143C16.7601 34.8473 16.7721 34.7552 16.7866 34.6411C16.8157 34.413 16.855 34.0978 16.9011 33.7219C16.9932 32.9702 17.1121 31.9762 17.2298 30.9511C17.4661 28.893 17.6945 26.7316 17.6945 26.134C17.6945 25.9687 17.693 25.7709 17.6913 25.5512C17.6876 25.0705 17.6832 24.4849 17.692 23.9042C17.7047 23.0616 17.7454 22.2039 17.8626 21.6711ZM23.131 22.9557C23.1321 22.9551 23.1319 22.9552 23.1308 22.9559C23.1309 22.9558 23.131 22.9558 23.131 22.9557ZM22.2228 23.7262C21.8246 24.0336 21.3186 24.3717 20.7372 24.6239C20.6875 24.6454 20.6309 24.644 20.5823 24.6201C20.5338 24.5961 20.4982 24.552 20.4851 24.4995L20.1984 23.3527C20.1947 23.3381 20.1929 23.3231 20.1929 23.308V21.895H18.1943C18.1072 22.3937 18.0722 23.1413 18.0605 23.9098C18.0518 24.4864 18.0562 25.0629 18.0599 25.5417C18.0616 25.7633 18.0631 25.9639 18.0631 26.134C18.0631 26.7587 17.8307 28.9489 17.596 30.9932C17.361 33.0399 17.1195 34.9752 17.0977 35.0956C17.0881 35.1481 17.0628 35.2012 17.0408 35.2425C17.0164 35.2884 16.9848 35.3398 16.9493 35.3938C16.8781 35.502 16.7847 35.6302 16.6846 35.7615C16.5758 35.9042 16.4572 36.0532 16.3466 36.1889H21.7681L20.9982 34.9337C20.9926 34.9245 20.9878 34.9148 20.9838 34.9048C20.9273 34.7611 20.8777 34.545 20.833 34.2834C20.7876 34.0182 20.7453 33.6945 20.7064 33.3287C20.6286 32.597 20.5639 31.6903 20.5167 30.7344C20.4223 28.8241 20.3974 26.7059 20.4799 25.3853C20.4825 25.3447 20.4984 25.306 20.5252 25.2754C20.804 24.9568 21.12 24.6971 21.426 24.4456C21.5262 24.3633 21.6253 24.2818 21.7217 24.1995C21.8941 24.0521 22.0626 23.8985 22.2228 23.7262Z" fill="#CF883C"/>
<path d="M21.4811 19.8665C21.4811 21.2463 20.3626 22.3649 18.9827 22.3649C17.6029 22.3649 16.4844 21.2463 16.4844 19.8665C16.4844 18.4867 17.6029 17.3682 18.9827 17.3682C20.3626 17.3682 21.4811 18.4867 21.4811 19.8665Z" fill="#34D28B"/>
<path d="M22.7084 13.035C22.7149 13.5413 22.3097 13.9569 21.8034 13.9634C21.2971 13.9698 20.8814 13.5646 20.875 13.0583C20.8685 12.552 21.2737 12.1364 21.78 12.1299C22.2863 12.1235 22.702 12.5287 22.7084 13.035Z" fill="#03A35B"/>
<path d="M18.8451 12.9168C18.8516 13.4231 18.4464 13.8388 17.9401 13.8452C17.4338 13.8517 17.0181 13.4465 17.0117 12.9402C17.0052 12.4339 17.4104 12.0182 17.9167 12.0118C18.423 12.0053 18.8387 12.4105 18.8451 12.9168Z" fill="#03A35B"/>
<path fill-rule="evenodd" clip-rule="evenodd" d="M18.2046 15.4029C18.4131 15.311 18.6566 15.4055 18.7485 15.614C18.9302 16.0263 19.2607 16.2192 19.5624 16.2267C19.8528 16.234 20.204 16.0701 20.4346 15.5752C20.5308 15.3686 20.7762 15.2792 20.9828 15.3754C21.1893 15.4716 21.2787 15.7171 21.1825 15.9236C20.8334 16.673 20.2053 17.0682 19.5418 17.0516C18.8893 17.0353 18.2909 16.6216 17.9935 15.9468C17.9016 15.7383 17.9961 15.4948 18.2046 15.4029Z" fill="#03A35B"/>
</svg>
