<svg width="418" height="142" viewBox="0 0 418 142" fill="none" xmlns="http://www.w3.org/2000/svg">
<path d="M388.516 115.186C388.516 115.793 388.242 116.37 387.76 116.74C384.735 119.063 381.327 121.113 377.538 122.89C373.429 124.817 369.063 126.358 364.441 127.514C359.818 128.67 355.067 129.376 350.188 129.633C345.437 129.761 340.815 129.376 336.32 128.477C331.698 127.578 327.332 126.101 323.223 124.046C319.243 121.862 315.776 119.101 312.823 115.761C309.741 112.294 307.301 108.119 305.504 103.239C303.835 98.2294 303 92.4495 303 85.8991V23.7431C303 22.6386 303.895 21.7431 305 21.7431H322.764C323.869 21.7431 324.764 22.6386 324.764 23.7431V86.2844C324.764 92.8349 326.434 98.0367 329.772 101.89C333.239 105.615 337.861 107.991 343.639 109.018C349.546 109.917 356.351 109.468 364.055 107.67C370.856 106.083 378.006 103.295 385.506 99.3058C386.86 98.5861 388.516 99.5526 388.516 101.085V115.186ZM398.428 141C397.324 141 396.428 140.105 396.428 139V78V17C396.428 15.8954 397.324 15 398.428 15H416C417.105 15 418 15.8954 418 17V78V139C418 140.105 417.105 141 416 141H398.428Z" fill="#34D28B"/>
<path d="M272.231 69.769C272.231 82.5095 267.948 92.1614 259.381 98.7247C252.651 104.046 244.454 107.151 234.788 108.04C233.735 108.137 232.912 109.008 232.912 110.065V120.468C232.912 121.573 233.808 122.468 234.912 122.468H285C286.105 122.468 287 123.364 287 124.468V139C287 140.105 286.105 141 285 141H158C156.895 141 156 140.105 156 139V124.468C156 123.364 156.895 122.468 158 122.468H208.471C209.576 122.468 210.471 121.573 210.471 120.468V110.334C210.471 109.246 209.601 108.361 208.515 108.305C197.503 107.732 188.373 104.345 181.126 98.1456C173.07 91.4536 169.042 81.3513 169.042 67.8386V21C169.042 19.8954 169.938 19 171.042 19H270.231C271.336 19 272.231 19.8954 272.231 21V69.769ZM250.75 68.2247V39.5317C250.75 38.4271 249.854 37.5317 248.75 37.5317H192.524C191.42 37.5317 190.524 38.4271 190.524 39.5317V68.4177C190.524 75.6245 192.634 80.9652 196.854 84.4399C201.201 87.9146 206.891 89.6519 213.924 89.6519H226.007C232.912 89.6519 238.73 87.9789 243.461 84.6329C248.32 81.1582 250.75 75.6888 250.75 68.2247Z" fill="#34D28B"/>
<path d="M61.6133 102.654C61.6133 97.2543 60.3199 92.6258 57.7331 88.7686C55.1463 84.9115 51.2014 82.9829 45.8984 82.9829C40.8542 82.9829 36.9093 84.8472 34.0638 88.5758C31.2183 92.1758 29.7956 96.8686 29.7956 102.654C29.7956 108.44 31.1536 113.262 33.8698 117.119C36.7153 120.847 40.5308 122.712 45.3164 122.712C50.878 122.712 54.9523 120.847 57.5391 117.119C60.2552 113.262 61.6133 108.44 61.6133 102.654ZM83.7305 102.654C83.7305 108.183 82.7604 113.261 80.8203 117.89C78.8802 122.519 76.2287 126.569 72.8659 130.04C69.503 133.383 65.4935 136.019 60.8372 137.947C56.3103 139.747 51.3307 140.647 45.8984 140.647C40.3368 140.647 35.2279 139.747 30.5716 137.947C26.0447 136.019 22.0998 133.383 18.737 130.04C15.5035 126.569 12.9813 122.519 11.1706 117.89C9.3598 113.261 8.45442 108.183 8.45442 102.654C8.45442 97.2543 9.3598 92.3044 11.1706 87.8044C12.9813 83.1758 15.5035 79.1901 18.737 75.8472C22.0998 72.5044 26.0447 69.8686 30.5716 67.9401C35.2279 66.0115 40.3368 65.0472 45.8984 65.0472C51.3307 65.0472 56.3103 66.0115 60.8372 67.9401C65.4935 69.8686 69.503 72.5044 72.8659 75.8472C76.2287 79.1901 78.8802 83.1758 80.8203 87.8044C82.7604 92.3044 83.7305 97.2543 83.7305 102.654ZM90.3268 58.9972C90.3268 60.1018 89.4314 60.9972 88.3268 60.9972H2.5C1.39543 60.9972 0.5 60.1018 0.5 58.9972V43.7115C0.5 42.6069 1.39543 41.7115 2.5 41.7115H88.3268C89.4314 41.7115 90.3268 42.6069 90.3268 43.7115V58.9972ZM125.443 62.4686C125.443 63.5732 126.338 64.4686 127.443 64.4686H147.5C148.605 64.4686 149.5 65.3641 149.5 66.4686V81.1758C149.5 82.2803 148.605 83.1758 147.5 83.1758H127.443C126.338 83.1758 125.443 84.0712 125.443 85.1758V139.979C125.443 141.091 124.536 141.989 123.425 141.979L105.696 141.822C104.598 141.812 103.714 140.92 103.714 139.822V18.0615C103.714 16.957 104.609 16.0615 105.714 16.0615H123.443C124.547 16.0615 125.443 16.957 125.443 18.0615V62.4686Z" fill="#34D28B"/>
<path d="M64.2867 37.5313C65.0096 9.69774 40.5194 0.771902 21.9427 5.3868C21.4783 5.50216 21.1725 5.9537 21.2144 6.43033C23.9106 37.0976 49.9521 40.6305 63.4798 38.4749C63.9411 38.4014 64.2746 37.9983 64.2867 37.5313Z" fill="url(#paint0_linear_608_213)"/>
<defs>
<linearGradient id="paint0_linear_608_213" x1="42.0367" y1="6.38105" x2="62.3273" y2="37.5084" gradientUnits="userSpaceOnUse">
<stop stop-color="#ADFF9C"/>
<stop offset="1" stop-color="#34D28B"/>
</linearGradient>
</defs>
</svg>
